<?xml version="1.0" standalone="no"?>
<!DOCTYPE svg PUBLIC "-//W3C//DTD SVG 20010904//EN"
 "http://www.w3.org/TR/2001/REC-SVG-20010904/DTD/svg10.dtd">
<svg version="1.0" xmlns="http://www.w3.org/2000/svg"
 width="360.000000pt" height="360.000000pt" viewBox="0 0 360.000000 360.000000"
 preserveAspectRatio="xMidYMid meet">

<g transform="translate(0.000000,360.000000) scale(0.100000,-0.100000)"
fill="#BEA3AA" stroke="none">
<path d="M2273 3038 c-31 -22 -44 -48 -23 -48 6 0 10 6 10 13 0 6 15 22 33 35
17 12 27 22 22 22 -6 0 -25 -10 -42 -22z"/>
<path d="M2195 3030 c-3 -6 1 -7 9 -4 18 7 21 14 7 14 -6 0 -13 -4 -16 -10z"/>
<path d="M2461 3018 c-4 -13 -10 -17 -14 -11 -7 12 -110 -38 -123 -59 -4 -6
-3 -8 2 -5 6 3 16 2 24 -3 12 -7 12 -12 2 -22 -9 -9 -12 -9 -12 1 0 7 -6 11
-15 8 -24 -10 -30 15 -7 34 23 18 31 46 10 33 -8 -5 -9 -2 -5 9 10 27 -10 29
-35 4 -13 -12 -34 -31 -47 -42 l-24 -20 11 21 c6 12 9 24 6 27 -9 9 -34 -4
-34 -17 0 -7 -20 -32 -45 -56 -29 -28 -45 -39 -45 -28 0 8 18 27 40 42 22 14
40 28 40 30 0 2 -9 6 -21 9 -14 4 -19 2 -16 -7 3 -7 -7 -20 -22 -29 -27 -16
-28 -16 -24 6 2 12 20 33 40 45 19 13 33 26 30 29 -3 2 -17 -3 -31 -12 -29
-19 -54 -12 -35 11 6 8 8 14 4 14 -7 0 -159 -90 -346 -204 -47 -29 -91 -50
-99 -48 -7 3 -10 0 -7 -6 4 -5 0 -15 -8 -22 -12 -10 -15 -10 -15 1 0 8 -9 4
-20 -11 l-20 -25 10 28 c9 26 8 27 -10 17 -11 -6 -20 -15 -20 -20 0 -5 -6 -7
-13 -4 -8 3 -14 -2 -14 -11 0 -8 7 -15 16 -16 10 0 11 -3 4 -5 -7 -3 -21 0
-33 6 -11 6 -25 8 -30 5 -14 -9 0 -34 16 -28 26 10 14 -6 -16 -22 -37 -19 -51
-19 -26 0 11 8 14 15 7 15 -7 0 -9 4 -6 10 3 6 -1 7 -9 4 -9 -3 -14 -10 -13
-16 1 -6 -9 -12 -23 -14 -14 -3 -26 -9 -28 -14 -2 -6 -10 -10 -18 -10 -8 0
-14 -7 -14 -16 0 -8 -4 -13 -9 -9 -5 3 -16 -1 -24 -9 -8 -8 -17 -12 -21 -9 -3
4 -6 2 -6 -4 0 -6 -11 -14 -25 -17 -14 -4 -25 -14 -25 -23 0 -9 -3 -13 -6 -10
-7 6 -55 -24 -83 -51 -8 -8 -33 -25 -55 -39 -23 -14 -45 -32 -49 -39 -4 -8
-14 -14 -21 -14 -8 0 -21 -11 -30 -25 -9 -14 -25 -25 -36 -25 -11 0 -20 -4
-20 -10 0 -5 -6 -10 -14 -10 -8 0 -16 -7 -20 -15 -3 -8 -17 -20 -31 -25 -26
-10 -31 -37 -10 -52 6 -5 4 -8 -5 -8 -9 0 -22 6 -29 13 -10 10 -15 9 -25 -5
-7 -10 -17 -18 -22 -18 -14 -1 -54 -37 -54 -49 0 -6 -7 -11 -15 -11 -20 0 -68
-47 -61 -59 3 -5 -4 -12 -17 -15 -20 -6 -21 -7 -5 -20 17 -12 17 -14 -2 -31
-19 -18 -20 -17 -20 4 0 14 -5 21 -12 18 -7 -2 -12 -10 -10 -16 1 -6 -3 -11
-9 -11 -6 0 -8 -7 -5 -17 4 -10 -2 -25 -15 -40 -22 -23 -14 -34 9 -11 7 7 12
8 12 3 -1 -10 -181 -157 -200 -163 -6 -2 -10 -10 -10 -18 0 -8 -5 -13 -12 -12
-7 2 -12 -2 -13 -9 0 -6 -3 -15 -7 -19 -11 -10 -10 -34 1 -34 5 0 30 16 55 35
26 19 48 35 51 35 2 0 -9 -20 -25 -44 -36 -53 -38 -64 -6 -39 52 41 132 100
144 107 28 17 9 -6 -36 -41 -76 -61 -132 -127 -122 -143 8 -13 14 -12 40 4 53
31 43 11 -11 -23 -28 -17 -55 -28 -60 -25 -6 3 -13 -3 -16 -15 -3 -12 -9 -21
-14 -21 -5 0 -9 -11 -9 -24 0 -28 35 -45 53 -27 14 14 27 14 27 1 0 -6 -15
-18 -34 -27 -29 -13 -34 -21 -33 -49 1 -33 27 -51 27 -19 0 8 5 15 10 15 6 0
10 -7 10 -15 0 -18 14 -19 41 -5 24 13 49 1 25 -12 -17 -9 -22 -38 -7 -38 5 0
14 7 21 15 7 8 22 15 34 14 11 0 15 -3 9 -6 -16 -6 -17 -23 -2 -23 9 0 160
122 207 167 8 7 23 18 35 24 25 12 3 -9 -122 -115 -47 -41 -77 -73 -70 -76 7
-5 5 -9 -5 -13 -9 -4 -16 -2 -16 4 0 6 -5 7 -11 4 -6 -4 -8 -13 -5 -21 3 -7
-8 -24 -26 -37 -17 -14 -29 -30 -26 -38 3 -9 11 -6 27 10 17 17 26 20 34 12 8
-8 8 -11 -1 -11 -7 0 -12 -8 -10 -17 2 -13 -3 -17 -19 -16 -27 3 -29 -3 -9
-23 8 -8 22 -11 30 -8 9 3 16 2 16 -4 0 -5 -9 -12 -21 -15 -23 -6 -17 -27 7
-27 8 0 14 -7 14 -16 0 -8 3 -13 8 -11 4 3 8 -6 9 -21 0 -14 8 -29 16 -34 9
-5 13 -16 10 -28 -6 -23 0 -25 28 -10 15 8 19 7 19 -4 0 -7 -7 -16 -15 -20 -8
-3 -15 -11 -15 -17 0 -8 7 -6 19 5 10 9 31 16 49 14 29 -2 29 -3 13 -25 -19
-26 -44 -38 -49 -24 -4 13 -22 4 -22 -10 0 -6 5 -7 10 -4 6 3 10 1 10 -5 0 -7
7 -10 15 -6 8 3 15 1 15 -3 0 -5 -7 -12 -16 -15 -10 -4 -13 -13 -9 -25 4 -14
0 -21 -14 -26 -11 -3 -18 -11 -16 -18 3 -7 -11 -22 -30 -35 -20 -12 -33 -27
-30 -32 3 -6 1 -10 -4 -10 -6 0 -11 -7 -11 -15 0 -8 2 -15 5 -15 13 0 83 50
87 62 3 9 6 9 12 0 7 -12 -5 -25 -64 -71 -14 -11 -22 -23 -18 -27 5 -4 16 0
26 9 23 21 50 24 33 4 -7 -10 -7 -17 0 -24 8 -8 4 -13 -12 -18 -21 -7 -21 -8
-5 -20 13 -10 14 -15 5 -21 -7 -4 -15 -2 -17 4 -5 15 -32 16 -32 2 0 -5 6 -10
14 -10 8 0 16 -4 18 -9 6 -18 33 -15 82 9 27 13 51 32 54 42 2 10 14 18 26 18
11 0 30 7 40 15 23 17 36 19 36 5 0 -5 -8 -10 -18 -10 -9 0 -23 -9 -30 -20 -7
-12 -17 -18 -22 -15 -6 3 -10 -5 -10 -19 0 -14 -5 -28 -10 -31 -6 -4 -8 -11
-5 -16 7 -11 45 7 45 22 0 5 9 19 20 31 12 13 20 16 20 9 0 -7 6 -11 13 -8 6
2 11 12 9 21 -3 14 1 16 17 11 13 -4 27 1 38 12 11 10 26 19 35 21 18 3 32
-24 18 -33 -6 -4 -10 -11 -10 -16 0 -6 14 -1 30 11 21 15 30 17 30 8 -1 -18
-25 -48 -39 -48 -9 0 -31 -39 -31 -56 0 -14 32 1 61 29 19 19 40 32 47 29 16
-5 15 -22 -1 -22 -8 0 -24 -11 -37 -25 -13 -14 -18 -25 -11 -25 8 0 10 -7 6
-20 -7 -22 5 -26 23 -8 9 9 12 9 12 0 0 -7 7 -12 15 -12 8 0 15 -4 15 -10 0
-5 -13 -7 -31 -3 -28 5 -31 4 -25 -14 4 -12 1 -25 -9 -33 -8 -7 -15 -16 -15
-21 0 -14 36 -10 50 5 6 8 17 13 24 10 7 -3 29 13 49 35 20 22 46 42 57 46 13
4 20 16 21 33 1 17 3 21 6 9 4 -15 10 -13 46 16 25 20 50 32 61 29 13 -3 15
-6 7 -11 -8 -6 -9 -15 -2 -34 8 -20 7 -27 -1 -27 -6 0 -22 -10 -35 -22 -17
-16 -26 -19 -31 -11 -4 7 -17 11 -29 10 -12 0 -20 -3 -18 -6 9 -8 -17 -31 -35
-31 -13 0 -17 -6 -13 -19 3 -13 -8 -26 -41 -48 -25 -17 -43 -33 -40 -36 4 -3
18 2 33 11 25 16 25 16 12 -1 -34 -43 9 -28 130 47 35 21 73 40 84 41 34 4 35
5 33 16 -2 6 3 14 10 16 6 3 12 0 12 -7 0 -6 5 -8 10 -5 6 4 7 11 4 17 -4 7
-2 8 4 4 8 -4 12 0 12 11 0 15 2 16 10 3 8 -13 12 -12 27 4 17 18 17 19 0 13
-11 -4 -16 -3 -12 3 3 6 12 10 20 10 39 0 15 -27 -97 -110 -135 -99 -229 -180
-210 -180 6 0 21 9 32 20 11 11 26 20 34 20 8 0 17 7 20 15 3 9 18 21 33 28
40 17 210 146 263 199 58 58 256 188 289 190 14 1 39 15 55 30 20 19 33 25 40
18 7 -7 6 -14 -2 -22 -13 -13 -16 -48 -4 -48 16 0 34 18 28 28 -3 5 1 15 9 22
12 10 15 9 15 -4 0 -18 15 -22 25 -6 4 6 22 17 41 25 36 15 39 21 25 44 -6 10
-13 10 -29 2 -16 -9 -20 -8 -18 4 3 22 13 28 33 19 44 -20 96 -3 78 26 -3 5 0
12 6 16 8 4 7 9 -2 15 -10 6 -7 10 11 17 33 13 36 8 16 -23 -17 -26 -9 -34 13
-12 10 10 11 9 6 -5 -5 -13 -2 -15 17 -10 32 8 88 42 88 53 0 13 -24 11 -38
-3 -16 -16 -37 5 -28 29 6 14 9 15 15 4 7 -10 10 -10 16 -1 6 9 9 9 15 1 5 -8
14 -9 33 -2 19 7 27 7 27 0 0 -6 6 -9 13 -6 6 2 11 11 9 20 -1 8 2 18 8 22 5
3 10 -1 10 -10 0 -9 3 -15 8 -13 4 2 26 13 49 24 44 20 59 40 22 31 -15 -4
-18 -2 -10 7 7 9 7 16 0 23 -8 8 -8 13 0 17 6 4 22 -4 35 -17 17 -17 29 -21
44 -16 26 10 38 29 18 29 -9 0 -13 6 -10 14 3 8 12 12 20 9 8 -3 14 1 14 10 0
8 7 20 15 27 13 11 14 10 10 -1 -3 -8 4 -20 16 -27 18 -12 26 -10 61 13 40 27
47 46 10 26 -30 -16 -39 -13 -16 4 13 10 15 14 5 15 -8 0 -12 2 -10 4 3 3 22
1 42 -4 38 -8 95 9 80 23 -3 4 2 15 11 26 13 14 14 21 5 27 -9 5 -7 11 6 21
11 7 16 13 12 13 -5 0 -2 6 5 14 9 10 17 11 26 4 9 -8 12 -6 12 6 0 10 5 14
11 11 10 -7 90 41 97 58 2 4 10 7 17 7 18 0 47 29 40 41 -4 5 0 6 7 4 8 -3 22
2 33 10 20 16 20 16 0 14 -37 -3 -39 1 -14 28 13 14 18 23 12 19 -7 -4 -13 -3
-13 2 0 5 25 26 56 46 31 21 54 40 51 43 -3 2 -23 -7 -44 -21 -20 -14 -42 -26
-48 -26 -13 0 29 39 80 73 63 43 25 31 -43 -13 -34 -22 -62 -36 -62 -32 0 4
25 29 55 56 62 56 69 76 26 76 -39 0 -45 12 -20 38 18 20 18 22 2 22 -16 0
-120 -62 -133 -80 -3 -4 -38 -23 -77 -42 -69 -34 -88 -37 -61 -10 9 9 8 12 -5
12 -40 0 24 54 138 116 60 32 85 53 85 70 0 7 7 17 17 22 10 6 14 16 9 27 -6
17 -14 17 -61 0 -16 -6 -15 -3 5 14 14 11 30 21 35 21 11 0 75 63 75 74 0 13
-20 5 -67 -24 -26 -17 -52 -30 -57 -30 -8 0 -8 3 0 8 6 4 10 21 10 37 -1 24
-5 30 -24 29 -12 0 -22 3 -22 8 0 4 7 8 16 8 11 0 13 6 9 19 -4 14 0 23 15 31
11 6 20 15 20 20 0 18 -40 21 -70 5 -39 -20 -90 -12 -90 14 0 14 7 18 26 15
15 -1 30 -8 35 -15 6 -10 13 -8 34 5 31 20 27 33 -4 16 -14 -7 -21 -7 -21 0 0
5 -10 10 -22 10 -20 0 -20 1 -4 19 10 11 31 25 47 31 33 14 42 45 9 35 -11 -3
-20 -2 -20 4 0 16 21 24 32 13 16 -16 46 -2 45 21 0 12 3 30 7 40 6 13 3 17
-13 17 -14 0 -19 5 -14 15 3 9 11 14 17 12 6 -2 16 3 23 12 10 13 15 14 32 3
17 -10 25 -10 41 0 26 16 26 32 1 18 -34 -18 -34 -14 -4 39 2 2 9 -2 17 -8 18
-15 34 5 17 22 -8 8 -18 7 -36 -3 -32 -17 -47 -3 -17 17 12 9 22 21 22 28 0
18 25 26 38 13 8 -8 13 -7 18 5 9 24 -5 41 -22 26 -11 -9 -17 -9 -28 0 -11 10
-17 8 -25 -6 -9 -16 -10 -16 -11 -1 0 9 5 18 12 20 21 7 -4 30 -28 25 -52 -9
-41 12 21 42 36 18 63 36 60 41 -3 5 -12 7 -20 3 -8 -3 -15 0 -15 6 0 18 -73
5 -128 -24 -29 -15 -52 -32 -52 -39 0 -7 -4 -6 -9 2 -7 11 -19 9 -63 -12 -30
-14 -59 -26 -63 -26 -20 0 39 42 78 56 9 3 17 12 17 19 0 8 8 16 18 19 21 7
81 66 66 66 -5 0 -22 -9 -39 -20 -16 -11 -40 -20 -52 -20 -20 0 -129 -57 -164
-87 -24 -20 -45 -17 -28 4 12 15 12 16 -1 8 -13 -8 -13 -7 -1 8 9 12 10 17 2
17 -7 0 -9 5 -6 11 5 6 11 5 19 -6 9 -13 14 -14 28 -3 24 19 35 68 14 68 -8 0
-23 -8 -33 -19 -10 -10 -29 -22 -43 -26 -23 -7 -24 -6 -11 9 13 15 13 19 0 27
-11 7 -9 9 8 9 23 0 36 14 39 40 1 8 5 23 9 34 7 16 5 17 -16 11 -22 -7 -23
-6 -10 9 13 15 13 19 1 26 -8 5 -19 5 -26 -1 -6 -5 -19 -7 -28 -3 -11 4 -16 1
-16 -10 0 -9 -7 -16 -16 -16 -31 0 -6 26 62 62 38 21 74 39 79 41 6 2 6 8 2
13 -4 4 -21 0 -36 -9 -31 -18 -56 -23 -47 -8 9 14 -20 21 -53 11 -21 -6 -35
-4 -50 7 -12 8 -27 11 -34 7 -8 -5 -8 -2 2 9 14 18 11 20 -31 17 -47 -3 -39
17 18 46 30 15 58 32 61 37 10 16 -4 17 -33 2 -34 -17 -54 -19 -54 -5 0 6 5
10 10 10 6 0 10 5 10 10 0 19 -31 10 -39 -12z m-431 -63 c-30 -19 -59 -35 -65
-35 -13 1 96 70 109 70 6 0 -14 -16 -44 -35z m430 31 c0 -11 -19 -15 -25 -6
-3 5 1 10 9 10 9 0 16 -2 16 -4z m-59 -39 c-16 -16 -26 0 -10 19 9 11 15 12
17 4 2 -6 -1 -17 -7 -23z m-328 -18 c-6 -6 -9 -18 -6 -25 3 -8 0 -14 -7 -14
-6 0 -8 5 -4 11 4 8 -1 9 -17 4 l-24 -8 25 21 c26 22 53 31 33 11z m-155 -42
c-37 -30 -93 -63 -84 -49 7 11 96 72 105 72 3 -1 -6 -11 -21 -23z m182 -1 c0
-3 -4 -8 -10 -11 -5 -3 -10 -1 -10 4 0 6 5 11 10 11 6 0 10 -2 10 -4z m257
-13 c-9 -9 -20 -13 -24 -9 -4 4 -1 11 7 16 25 16 35 11 17 -7z m253 -23 c0 -5
-3 -10 -7 -11 -5 0 -21 -2 -38 -4 l-30 -4 25 14 c30 17 50 19 50 5z m-805 -30
c-3 -5 -12 -10 -18 -10 -7 0 -6 4 3 10 19 12 23 12 15 0z m625 -22 c0 -4 -9
-8 -20 -8 -11 0 -20 4 -20 9 0 6 9 9 20 8 11 -1 20 -5 20 -9z m-73 -33 c-4 -8
-11 -15 -17 -15 -7 0 -7 6 0 21 13 23 26 19 17 -6z m167 -20 c-18 -14 -54 -21
-41 -9 11 12 52 31 56 27 3 -2 -4 -10 -15 -18z m-844 -25 c-6 -11 -12 -20 -14
-20 -3 0 -1 23 3 38 1 1 6 2 11 2 7 0 7 -6 0 -20z m606 -19 c-8 -12 -46 -15
-46 -5 0 4 8 13 18 20 18 14 39 3 28 -15z m168 14 c-4 -8 -8 -15 -10 -15 -2 0
-4 7 -4 15 0 8 4 15 10 15 5 0 7 -7 4 -15z m-94 -5 c0 -5 -5 -10 -11 -10 -5 0
-7 5 -4 10 3 6 8 10 11 10 2 0 4 -4 4 -10z m15 -40 c3 -5 1 -10 -4 -10 -6 0
-11 5 -11 10 0 6 2 10 4 10 3 0 8 -4 11 -10z m-235 -10 c0 -5 -7 -10 -15 -10
-8 0 -15 -4 -15 -10 0 -5 -7 -10 -15 -10 -18 0 -19 6 -2 25 14 16 47 20 47 5z
m121 -34 c21 4 39 4 39 1 0 -8 -82 -45 -117 -52 -18 -4 -40 -16 -48 -28 l-15
-21 0 21 c0 18 10 25 48 37 40 11 47 17 45 37 -1 13 1 18 3 12 4 -9 18 -11 45
-7z m-791 -6 c0 -5 -2 -10 -4 -10 -3 0 -8 5 -11 10 -3 6 -1 10 4 10 6 0 11 -4
11 -10z m1534 -24 c-7 -17 -34 -22 -34 -6 0 6 7 10 15 10 8 0 15 5 15 12 0 6
2 9 5 6 3 -3 3 -13 -1 -22z m-349 5 c3 -5 1 -12 -5 -16 -5 -3 -10 1 -10 9 0
18 6 21 15 7z m-2 -41 c20 0 19 -2 -8 -20 -36 -24 -45 -25 -45 -5 0 8 5 15 10
15 6 0 10 8 11 18 0 10 3 12 6 5 2 -7 14 -13 26 -13z m267 6 c0 -3 -4 -8 -10
-11 -5 -3 -10 -1 -10 4 0 6 5 11 10 11 6 0 10 -2 10 -4z m84 -22 c4 -10 1 -14
-6 -12 -15 5 -23 28 -10 28 5 0 13 -7 16 -16z m-1574 2 c0 -3 -4 -8 -10 -11
-5 -3 -10 -1 -10 4 0 6 5 11 10 11 6 0 10 -2 10 -4z m1340 -6 c0 -5 -5 -10
-11 -10 -5 0 -7 5 -4 10 3 6 8 10 11 10 2 0 4 -4 4 -10z m190 -25 c8 5 11 4 7
-2 -10 -16 -47 -23 -47 -9 0 19 13 28 21 15 4 -6 12 -8 19 -4z m-420 -35 c0
-5 -2 -10 -4 -10 -3 0 -8 5 -11 10 -3 6 -1 10 4 10 6 0 11 -4 11 -10z m320
-10 c0 -5 -2 -10 -4 -10 -3 0 -8 5 -11 10 -3 6 -1 10 4 10 6 0 11 -4 11 -10z
m-350 -25 c-7 -8 -16 -12 -21 -9 -13 8 -1 24 18 24 13 0 13 -3 3 -15z m-1400
-49 c0 -3 -4 -8 -10 -11 -5 -3 -10 -1 -10 4 0 6 5 11 10 11 6 0 10 -2 10 -4z
m1897 -32 c-3 -3 -12 -4 -19 -1 -8 3 -5 6 6 6 11 1 17 -2 13 -5z m-2168 -193
c10 -7 8 -12 -10 -24 -27 -19 -42 -11 -16 8 13 10 15 14 5 18 -7 3 -8 6 -3 6
6 0 16 -3 24 -8z m-67 -73 c-15 -15 -24 -6 -16 16 5 12 10 14 17 7 8 -8 8 -14
-1 -23z m-52 -2 c0 -3 -4 -8 -10 -11 -5 -3 -10 -1 -10 4 0 6 5 11 10 11 6 0
10 -2 10 -4z m2126 -53 c-8 -8 -26 7 -26 23 0 8 -10 14 -22 15 -22 1 -22 1 2
8 20 6 28 3 38 -17 8 -13 11 -26 8 -29z m-56 1 c0 -18 -9 -17 -40 2 -14 8 -17
13 -7 10 9 -3 17 -1 17 4 0 5 7 7 15 4 8 -4 15 -12 15 -20z m-1842 -9 c-6 -14
-17 -25 -24 -25 -6 0 -14 -7 -18 -15 -6 -16 -40 -22 -34 -6 2 8 75 67 85 70 2
1 -3 -10 -9 -24z m1790 -44 c4 -28 -13 -20 -21 9 -3 14 -1 20 6 17 7 -2 14
-14 15 -26z m-81 -9 c9 -6 7 -11 -6 -19 -11 -7 -23 -8 -32 -2 -11 7 -10 9 4 9
10 0 15 5 12 10 -7 12 5 13 22 2z m-1817 -27 c-7 -8 -18 -15 -24 -15 -6 0 -2
7 8 15 25 19 32 19 16 0z m1750 -20 c-6 -8 -9 -19 -5 -25 4 -7 -2 -6 -14 2
-20 12 -20 14 -4 26 23 17 38 15 23 -3z m-1960 1 c0 -3 -4 -8 -10 -11 -5 -3
-10 -1 -10 4 0 6 5 11 10 11 6 0 10 -2 10 -4z m47 -28 c-3 -7 -5 -2 -5 12 0
14 2 19 5 13 2 -7 2 -19 0 -25z m68 22 c3 -5 1 -10 -4 -10 -6 0 -11 5 -11 10
0 6 2 10 4 10 3 0 8 -4 11 -10z m1905 -21 c0 -6 -4 -7 -10 -4 -5 3 -10 11 -10
16 0 6 5 7 10 4 6 -3 10 -11 10 -16z m-105 -29 c1 -11 -2 -20 -7 -20 -4 0 -8
5 -8 10 0 6 -13 4 -30 -5 -20 -10 -27 -20 -23 -31 5 -13 2 -15 -13 -10 -18 5
-36 -4 -176 -91 -5 -2 -8 -2 -8 0 0 2 33 26 73 52 39 26 74 52 75 57 2 4 12 8
23 8 13 0 17 5 13 18 -4 12 -3 13 3 4 7 -9 15 -4 32 19 24 33 43 29 46 -11z
m-1825 16 c0 -7 -11 -21 -25 -30 -34 -22 -43 -20 -17 4 12 12 22 25 22 30 0 6
5 10 10 10 6 0 10 -6 10 -14z m-17 -82 c7 -8 -86 -84 -102 -84 -6 0 -11 -4
-11 -10 0 -9 -51 -40 -66 -40 -5 0 7 12 26 28 18 15 56 46 84 69 53 44 59 47
69 37z m1821 -79 c-7 -16 -24 -21 -24 -6 0 8 7 13 27 20 1 1 0 -6 -3 -14z
m366 5 c0 -5 -5 -10 -11 -10 -5 0 -7 5 -4 10 3 6 8 10 11 10 2 0 4 -4 4 -10z
m-400 -30 c0 -5 -15 -16 -33 -23 -18 -8 -39 -21 -47 -28 -30 -29 -81 -61 -88
-54 -4 3 2 11 13 17 11 6 30 22 43 35 22 22 88 62 105 63 4 0 7 -4 7 -10z
m520 -35 c-7 -8 -18 -15 -24 -15 -6 0 -2 7 8 15 25 19 32 19 16 0z m-835 -15
c-3 -5 -16 -15 -28 -21 -19 -9 -19 -8 3 10 28 23 34 26 25 11z m772 -17 c-9
-10 -29 -26 -46 -36 -28 -16 -31 -16 -31 -2 0 9 5 13 10 10 6 -3 25 5 43 19
37 30 47 33 24 9z m-157 -47 c0 -3 -4 -8 -10 -11 -5 -3 -10 -1 -10 4 0 6 5 11
10 11 6 0 10 -2 10 -4z m60 -20 c0 -2 -7 -7 -16 -10 -8 -3 -12 -2 -9 4 6 10
25 14 25 6z m-54 -23 c-3 -20 -22 -28 -31 -14 -3 7 0 8 10 5 11 -5 14 -2 9 10
-3 9 -2 16 4 16 6 0 9 -8 8 -17z m-2349 -20 c-15 -16 -17 -16 -17 -1 0 9 6 18
13 21 20 7 22 -2 4 -20z m2528 -3 c-3 -5 -11 -10 -16 -10 -6 0 -7 5 -4 10 3 6
11 10 16 10 6 0 7 -4 4 -10z m-265 -10 c0 -5 -2 -10 -4 -10 -3 0 -8 5 -11 10
-3 6 -1 10 4 10 6 0 11 -4 11 -10z m10 -30 c0 -5 -8 -10 -17 -10 -15 0 -16 2
-3 10 19 12 20 12 20 0z m230 -5 c0 -2 -10 -10 -22 -16 -21 -11 -22 -11 -9 4
13 16 31 23 31 12z m-70 -10 c0 -2 -10 -9 -22 -15 -22 -11 -22 -10 -4 4 21 17
26 19 26 11z m-85 -55 c-3 -5 -12 -10 -18 -10 -7 0 -6 4 3 10 19 12 23 12 15
0z m-2345 -4 c0 -3 -4 -8 -10 -11 -5 -3 -10 -1 -10 4 0 6 5 11 10 11 6 0 10
-2 10 -4z m2290 -176 c0 -5 -8 -10 -17 -10 -15 0 -16 2 -3 10 19 12 20 12 20
0z m-247 -141 c-6 -6 -17 -8 -24 -3 -9 5 -8 9 7 14 23 9 31 3 17 -11z m-1622
-37 c-12 -22 -41 -48 -41 -36 0 8 40 54 47 54 2 0 -1 -8 -6 -18z m1535 -27 c2
-19 -2 -25 -16 -25 -18 0 -20 10 -5 43 9 22 17 15 21 -18z m-1456 10 c-7 -8
-16 -15 -21 -15 -5 0 -6 7 -3 15 4 8 13 15 21 15 13 0 13 -3 3 -15z m179 -44
c-13 -11 -28 -20 -34 -20 -5 0 3 11 20 24 16 13 31 22 34 20 2 -3 -7 -13 -20
-24z m-292 -16 c0 -8 -4 -12 -8 -9 -4 2 -9 -2 -12 -8 -2 -7 -8 -10 -12 -6 -4
4 -1 14 6 22 18 19 26 20 26 1z m243 -15 c0 -6 -8 -13 -17 -17 -10 -3 -51 -33
-92 -65 -40 -32 -79 -58 -85 -58 -6 0 3 11 19 23 17 12 40 32 53 44 13 13 25
23 28 23 2 0 23 14 46 30 46 33 48 34 48 20z m1025 -88 c-3 -3 -11 0 -18 7 -9
10 -8 11 6 5 10 -3 15 -9 12 -12z m-1365 -62 c0 -5 -7 -10 -15 -10 -8 0 -15
-4 -15 -10 0 -5 -6 -10 -12 -10 -7 1 -2 10 11 20 26 23 31 24 31 10z m1280 -4
c0 -2 -8 -10 -17 -17 -16 -13 -17 -12 -4 4 13 16 21 21 21 13z m-205 -26 c-10
-11 -22 -20 -28 -20 -5 0 1 9 14 20 31 25 37 25 14 0z m-754 -19 c-8 -5 -20
-7 -28 -4 -11 4 -10 8 4 19 12 8 21 9 28 3 6 -7 5 -13 -4 -18z m-41 -51 c18
-12 2 -12 -25 0 -13 6 -15 9 -5 9 8 0 22 -4 30 -9z m408 -3 c-27 -11 -38 -27
-18 -27 5 0 7 -7 3 -16 -3 -10 -13 -14 -25 -11 -12 3 -26 -2 -36 -14 -9 -10
-22 -19 -29 -19 -23 0 -14 19 17 35 17 9 30 20 30 26 0 10 57 39 75 38 6 -1
-2 -6 -17 -12z m-723 -57 c-3 -5 -11 -10 -16 -10 -6 0 -7 5 -4 10 3 6 11 10
16 10 6 0 7 -4 4 -10z m905 -10 c0 -5 -5 -10 -11 -10 -5 0 -7 5 -4 10 3 6 8
10 11 10 2 0 4 -4 4 -10z m-205 -40 c-16 -16 -31 -27 -34 -24 -6 6 45 54 56
54 4 0 -6 -13 -22 -30z m125 -14 c0 -2 -7 -6 -15 -10 -8 -3 -15 -1 -15 4 0 6
7 10 15 10 8 0 15 -2 15 -4z m-280 -121 c0 -2 -10 -9 -22 -15 -22 -11 -22 -10
-4 4 21 17 26 19 26 11z"/>
<path d="M2620 2920 c0 -5 5 -10 11 -10 5 0 7 5 4 10 -3 6 -8 10 -11 10 -2 0
-4 -4 -4 -10z"/>
<path d="M2650 2910 c0 -5 5 -10 10 -10 6 0 10 5 10 10 0 6 -4 10 -10 10 -5 0
-10 -4 -10 -10z"/>
<path d="M2685 2900 c3 -5 8 -10 11 -10 2 0 4 5 4 10 0 6 -5 10 -11 10 -5 0
-7 -4 -4 -10z"/>
<path d="M2763 2788 c-13 -6 -23 -17 -23 -24 0 -8 -7 -11 -17 -7 -10 3 -15 3
-11 -2 4 -4 2 -15 -5 -23 -10 -13 -9 -15 8 -8 11 5 28 10 37 13 9 3 14 11 11
19 -3 8 -1 14 4 14 5 0 18 7 29 15 23 18 1 20 -33 3z"/>
<path d="M2757 2656 c-4 -10 -1 -13 8 -9 8 3 12 9 9 14 -7 12 -11 11 -17 -5z"/>
<path d="M3175 2539 c-4 -6 -5 -13 -2 -16 7 -7 27 6 27 18 0 12 -17 12 -25 -2z"/>
<path d="M1130 2485 c-11 -13 -10 -14 4 -9 9 3 16 10 16 15 0 13 -6 11 -20 -6z"/>
<path d="M3030 2340 c0 -5 5 -10 10 -10 6 0 10 5 10 10 0 6 -4 10 -10 10 -5 0
-10 -4 -10 -10z"/>
<path d="M3080 2330 c-8 -5 -11 -12 -7 -16 4 -4 15 0 24 9 18 18 8 23 -17 7z"/>
<path d="M3036 2301 c-3 -5 1 -12 10 -15 20 -8 29 -1 19 13 -8 13 -22 14 -29
2z"/>
<path d="M3024 2225 c4 -10 -1 -14 -17 -12 -19 2 -22 -3 -23 -35 -1 -21 2 -38
5 -38 10 1 57 40 47 40 -5 0 -3 7 4 15 14 16 7 45 -11 45 -6 0 -9 -7 -5 -15z"/>
<path d="M3014 2076 c-10 -8 -16 -17 -12 -21 8 -8 48 13 48 25 0 14 -13 12
-36 -4z"/>
<path d="M3010 1756 c7 -7 13 -7 20 0 6 6 3 10 -10 10 -13 0 -16 -4 -10 -10z"/>
<path d="M2961 1728 c1 -17 3 -18 6 -6 2 10 10 15 19 11 8 -3 14 0 14 6 0 6
-9 11 -20 11 -14 0 -20 -6 -19 -22z"/>
<path d="M2917 1713 c-4 -3 -7 -11 -7 -17 0 -6 5 -5 12 2 6 6 9 14 7 17 -3 3
-9 2 -12 -2z"/>
<path d="M355 1470 c4 -6 11 -8 16 -5 14 9 11 15 -7 15 -8 0 -12 -5 -9 -10z"/>
<path d="M2991 1370 c-30 -26 -14 -26 19 0 14 11 21 20 15 19 -5 0 -21 -9 -34
-19z"/>
<path d="M376 1361 c-4 -6 0 -11 8 -11 9 0 16 -7 16 -16 0 -10 7 -14 22 -12
30 4 36 28 6 28 -13 0 -29 5 -35 11 -8 8 -13 8 -17 0z"/>
<path d="M2928 1337 c-16 -6 -28 -15 -28 -19 0 -5 14 -2 30 7 17 9 30 18 30
20 0 3 -1 5 -2 4 -2 -1 -15 -6 -30 -12z"/>
<path d="M490 1320 c0 -5 7 -10 15 -10 8 0 15 5 15 10 0 6 -7 10 -15 10 -8 0
-15 -4 -15 -10z"/>
<path d="M506 1181 c-4 -5 -2 -12 3 -15 5 -4 12 -2 15 3 4 5 2 12 -3 15 -5 4
-12 2 -15 -3z"/>
<path d="M630 910 c0 -5 5 -10 10 -10 6 0 10 5 10 10 0 6 -4 10 -10 10 -5 0
-10 -4 -10 -10z"/>
<path d="M1771 706 c-63 -45 -89 -67 -61 -51 25 14 130 88 130 91 0 7 -7 3
-69 -40z"/>
<path d="M1774 678 c-44 -29 -87 -59 -95 -66 -7 -7 -71 -55 -141 -107 -69 -52
-129 -99 -133 -105 -12 -19 6 -26 19 -7 7 9 16 17 20 17 4 0 13 6 20 13 14 13
51 41 103 79 18 13 70 50 115 82 71 51 149 110 183 138 5 5 5 8 -1 8 -5 0 -46
-24 -90 -52z"/>
<path d="M590 664 c0 -14 3 -14 15 -4 8 7 15 14 15 16 0 2 -7 4 -15 4 -8 0
-15 -7 -15 -16z"/>
<path d="M1654 624 c-18 -14 -18 -15 4 -4 12 6 22 13 22 15 0 8 -5 6 -26 -11z"/>
<path d="M1261 583 c0 -6 -4 -20 -7 -30 -5 -14 -4 -15 5 -7 7 7 11 20 8 30 -3
11 -5 14 -6 7z"/>
<path d="M970 540 c0 -5 5 -10 10 -10 6 0 10 5 10 10 0 6 -4 10 -10 10 -5 0
-10 -4 -10 -10z"/>
<path d="M975 470 c-3 -5 1 -10 9 -10 9 0 16 5 16 10 0 6 -4 10 -9 10 -6 0
-13 -4 -16 -10z"/>
<path d="M1080 360 c0 -5 5 -10 10 -10 6 0 10 5 10 10 0 6 -4 10 -10 10 -5 0
-10 -4 -10 -10z"/>
<path d="M1055 340 c3 -5 8 -10 11 -10 2 0 4 5 4 10 0 6 -5 10 -11 10 -5 0 -7
-4 -4 -10z"/>
</g>
</svg>
